<?xml version="1.0" standalone="no"?><!DOCTYPE svg PUBLIC "-//W3C//DTD SVG 1.1//EN" "http://www.w3.org/Graphics/SVG/1.1/DTD/svg11.dtd"><svg t="1522037371883" class="icon" style="" viewBox="0 0 1024 1024" version="1.1" xmlns="http://www.w3.org/2000/svg" p-id="4799" xmlns:xlink="http://www.w3.org/1999/xlink" width="24" height="24"><defs><style type="text/css"></style></defs><path d="M538.434046 617.504916c0 3.687996-1.403976 7.356548-4.211928 10.1645-5.615904 5.615904-14.713097 5.615904-20.329001 0L364.187513 476.931297c-5.615904-5.615904-5.615904-14.713097 0-20.329001 5.615904-5.615904 14.713097-5.615904 20.329001 0l149.705604 150.739143C537.03007 610.148367 538.434046 613.817943 538.434046 617.504916z" p-id="4800" fill="#333333"></path><path d="M689.172165 466.767819c0 3.687996-1.403976 7.356548-4.211928 10.1645L534.222117 627.670439c-5.615904 5.615904-14.713097 5.615904-20.329001 0-5.615904-5.615904-5.615904-14.713097 0-20.329001L664.631236 456.603319c5.615904-5.615904 14.713097-5.615904 20.329001 0C687.768189 459.411271 689.172165 463.079824 689.172165 466.767819z" p-id="4801" fill="#333333"></path></svg>