<svg xmlns="http://www.w3.org/2000/svg" width="36" height="36" viewBox="0 0 36 36">
    <g fill="#FFF" fill-rule="nonzero">
        <path d="M21.171 29V14.75h4.858L27 10H10l.971 4.75h5.343V29z"/>
        <path d="M7.274 8.667a2.366 2.366 0 0 1-2.983 1.54A2.372 2.372 0 0 1 2.75 7.227 2.365 2.365 0 0 1 5.733 5.69a2.36 2.36 0 0 1 1.389 1.17c.29.562.345 1.204.152 1.807M33.98 9.732A17.9 17.9 0 0 0 23.435.847 18.095 18.095 0 0 0 7.085 3.64c-.013.01-.022.021-.034.031a4.756 4.756 0 0 0-.597-.24 4.76 4.76 0 0 0-1.443-.225A4.731 4.731 0 0 0 .487 6.508a4.745 4.745 0 0 0 4.526 6.181 4.732 4.732 0 0 0 4.524-3.301 4.7 4.7 0 0 0-.624-4.137 15.71 15.71 0 0 1 13.802-2.145 15.543 15.543 0 0 1 9.154 7.715 15.5 15.5 0 0 1 1.008 11.917 15.531 15.531 0 0 1-7.729 9.138 15.573 15.573 0 0 1-11.939 1.006A15.612 15.612 0 0 1 2.37 19.436a1.193 1.193 0 0 0-1.292-1.071 1.186 1.186 0 0 0-1.073 1.29A17.98 17.98 0 0 0 12.49 35.141c1.803.574 3.653.859 5.493.859 2.84 0 5.66-.678 8.256-2.017a17.887 17.887 0 0 0 8.902-10.526 17.848 17.848 0 0 0-1.16-13.725"/>
    </g>
</svg>
