<?xml version="1.0" standalone="no"?><!DOCTYPE svg PUBLIC "-//W3C//DTD SVG 1.1//EN" "http://www.w3.org/Graphics/SVG/1.1/DTD/svg11.dtd"><svg t="1481099321880" class="icon" style="" viewBox="0 0 1025 1024" version="1.1" xmlns="http://www.w3.org/2000/svg" p-id="1898" xmlns:xlink="http://www.w3.org/1999/xlink" width="16.015625" height="16"><defs><style type="text/css"></style></defs><path d="M591.447175 829.527579 591.447175 425.317053 726.184017 425.317053 753.131385 290.580211 281.552438 290.580211 308.499806 425.317053 456.710333 425.317053 456.710333 829.527579Z" p-id="1899" fill="#4caaf5"></path><path d="M206.328859 246.277389C197.382333 274.343074 171.607175 293.192758 142.180648 293.192758 135.282122 293.192758 128.397069 292.114863 121.727596 289.999495 86.345701 278.722021 66.741491 240.766653 78.005491 205.384758 86.952017 177.319074 112.713701 158.455916 142.126754 158.455916 149.038754 158.455916 155.93728 159.547284 162.620227 161.676126 179.74528 167.132968 193.730964 178.935916 202.003806 194.915705 210.249701 210.895495 211.785701 229.138863 206.328859 246.277389M963.778964 276.539284C901.072438 155.181811 794.872859 65.514442 664.717069 24.055916 506.792017-26.281768 333.399175 3.414232 200.966333 103.415916 200.602543 103.685389 200.346543 104.035705 199.996227 104.318653 194.525912 101.718232 188.934333 99.360337 183.059806 97.487495 169.76128 93.256758 156.004648 91.087495 142.126754 91.087495 83.260227 91.087495 31.696438 128.800337 13.816859 184.931705-8.738088 255.695495 30.49728 331.633179 101.274543 354.188126 114.559596 358.418863 128.329701 360.561179 142.180648 360.561179 201.060648 360.561179 252.637912 322.861811 270.517491 266.743916 281.444648 232.453389 278.372648 195.966653 261.840438 163.9936 259.159175 158.806232 256.087175 153.928758 252.826543 149.212968 366.328859 68.923284 511.534754 45.964126 644.277491 88.244547 757.28128 124.246232 849.481701 202.097179 903.928859 307.461389 958.362543 412.8256 968.521701 533.078232 932.520017 646.082021 896.518333 759.085811 818.653912 851.286232 713.303175 905.733389 607.938964 960.180547 487.672859 970.353179 374.669069 934.324547 204.469491 880.106442 83.799175 730.130863 67.240017 552.251284 65.501912 533.738442 49.023596 520.251284 30.578122 521.827705 12.051806 523.552337-1.570088 539.976758 0.154543 558.4896 19.219806 763.356968 158.214333 936.062653 354.229491 998.513179 405.389069 1014.816337 457.842122 1022.914021 510.052648 1022.914021 590.611806 1022.914021 670.591596 1003.646653 744.22528 965.596968 865.582754 902.876968 955.250122 796.677389 996.708648 666.5216 1038.180648 536.392758 1026.485491 397.883284 963.778964 276.539284" p-id="1900" fill="#4caaf5"></path></svg>