<svg xmlns="http://www.w3.org/2000/svg" width="21" height="20" viewBox="0 0 21 20">
    <g fill="#FFF" fill-rule="nonzero">
        <path d="M20.483 7.539c-.03-.02-.06-.047-.093-.058-2.596-.837-3.18-1.794-2.811-4.534.03-.22-.065-.542-.221-.685-1.185-1.078-2.545-1.84-4.109-2.249-.762.985-1.692 1.521-2.864 1.515C9.21 1.52 8.33.883 7.581.02 5.878.512 4.435 1.34 3.16 2.593c.476 1.1.481 2.159-.1 3.187C2.456 6.848 1.437 7.296.367 7.5c-.51 1.932-.456 3.86.118 5.132 1.113.186 2.029.703 2.616 1.738.588 1.037.438 2.1.113 3.156 1.101 1.116 2.37 1.834 3.763 2.358.384.145.709.16 1.006-.208 1.18-1.46 3.67-1.496 4.908-.011.252.302.528.395.895.26 1.465-.537 2.802-1.272 3.858-2.385-.605-2.877.197-4.272 2.823-4.94.506-1.518.504-3.617.016-5.062zm-1.579 3.42c-.267.148-.53.284-.785.436-1.65.98-2.66 2.436-2.614 4.346.026 1.099-.415 1.58-1.284 1.93-.105.042-.213.075-.394.137-2.217-1.57-4.506-1.601-6.824.045L5.39 16.94c.266-2.78-.84-4.785-3.4-5.954V9.131c.329-.19.663-.36.975-.565 1.446-.948 2.437-2.27 2.385-4.007-.04-1.333.5-1.942 1.74-2.277 2.274 1.584 4.526 1.55 6.753-.031.27.127.506.24.743.35.627.292.921.674.901 1.472-.051 2.053.904 3.617 2.697 4.647.227.13.456.258.721.409v1.83z"/>
        <path d="M10.461 6.287c-2.146-.007-3.796 1.656-3.775 3.802.02 1.981 1.555 3.609 3.527 3.722.297.017.61.005.895-.073.486-.135.773-.48.72-1.005-.049-.465-.345-.747-.807-.816-.22-.033-.451.009-.675-.013-1.078-.106-1.837-.945-1.783-1.958a1.9 1.9 0 0 1 1.744-1.77c1.027-.071 1.875.655 2.006 1.732.031.26-.012.53.025.788.067.478.406.793.842.748.316-.032.657-.303.883-.56.146-.166.134-.497.142-.755.065-2.106-1.627-3.835-3.744-3.842z"/>
    </g>
</svg>
