<svg xmlns="http://www.w3.org/2000/svg" width="16" height="15" viewBox="0 0 16 15">
    <path fill="#666666" fill-rule="nonzero" d="M13.167 7.208c0-1.476-.8-2.763-1.99-3.456a.713.713 0 0 0-.27-.084.482.482 0 1 0-.24.896 3.037 3.037 0 0 1-.049 5.315.48.48 0 0 0 .25.888c.112.001.245-.065.245-.065a3.997 3.997 0 0 0 2.054-3.494zm-.552-5.888a.546.546 0 0 0-.285-.097.476.476 0 0 0-.476.476c0 .19.113.342.272.428a5.876 5.876 0 0 1 .003 10.16c-.153.082-.285.24-.285.435 0 .263.213.476.476.476.106 0 .19-.041.281-.094a6.82 6.82 0 0 0 .014-11.784zM1.246 3.898H3.61c.315 0 .8-.13 2.912-1.677.376-.275.744-.552 1.062-.796l.008 6.23a.48.48 0 1 0 .961 0L8.53.584a.579.579 0 0 0-.94-.453c-.008.007-.857.68-1.794 1.371-1.63 1.2-2.105 1.4-2.2 1.433H1.552l-.034.001H.476A.476.476 0 0 0 0 3.412v7.598c0 .263.213.476.476.476h3.497c.095.035.543.242 1.989 1.421.841.686 1.597 1.356 1.604 1.363a.58.58 0 0 0 .964-.433v-2.669-.034h-.001a.477.477 0 0 0-.952.034l.007 1.746a52.118 52.118 0 0 0-.835-.691c-1.931-1.564-2.409-1.695-2.732-1.695l-.02.002-.018-.002H1.356c-.333 0-.41-.094-.41-.43v-5.83c0-.227.026-.37.3-.37z"/>
</svg>
