<svg xmlns="http://www.w3.org/2000/svg" width="16" height="16" viewBox="0 0 16 16">
    <path fill="#0ABFBC" fill-rule="nonzero" d="M12.577 16a.57.57 0 0 1-.278-.072l-4.309-2.39-4.318 2.375a.57.57 0 0 1-.84-.594l.838-5.084L.162 6.627a.57.57 0 0 1 .313-.961l2.77-.475a.57.57 0 1 1 .193 1.127l-1.7.29 2.953 3.038c.126.13.183.313.154.49l-.693 4.21 3.565-1.962a.57.57 0 0 1 .552.001l3.557 1.973-.68-4.21a.571.571 0 0 1 .156-.49l2.94-3.005-4.029-.622a.573.573 0 0 1-.43-.323L8.01 1.916 6.224 5.699A.571.571 0 1 1 5.19 5.21L7.497.327A.572.572 0 0 1 8.013 0h.001c.222 0 .423.13.517.33l2.157 4.618 4.827.745a.572.572 0 0 1 .322.964l-3.516 3.593.82 5.087a.572.572 0 0 1-.564.663z"/>
</svg>
