<?xml version="1.0" standalone="no"?><!DOCTYPE svg PUBLIC "-//W3C//DTD SVG 1.1//EN" "http://www.w3.org/Graphics/SVG/1.1/DTD/svg11.dtd"><svg t="1492335512904" class="icon" style="" viewBox="0 0 1024 1024" version="1.1" xmlns="http://www.w3.org/2000/svg" p-id="2912" xmlns:xlink="http://www.w3.org/1999/xlink" width="16" height="16"><defs><style type="text/css"></style></defs><path d="M99.119848 428.002088h828.014506a43.350032 43.350032 0 0 0 43.350032-43.350031 43.248882 43.248882 0 0 0-16.451337-33.957525 43.465632 43.465632 0 0 0-9.219107-8.756707L635.50424 124.869766a43.350032 43.350032 0 1 0-49.809186 70.964002l207.270952 145.461032H99.119848a43.350032 43.350032 0 0 0 0 86.707288zM927.134354 601.07709H99.119848a43.350032 43.350032 0 0 0-43.350032 43.350032 43.205532 43.205532 0 0 0 16.451337 33.9503c2.564877 3.272927 5.635504 6.242405 9.219107 8.756706l309.309701 217.075284a43.313907 43.313907 0 0 0 60.386594-10.584632 43.350032 43.350032 0 0 0-10.577407-60.386595L233.288196 687.777154h693.846158a43.350032 43.350032 0 0 0 0-86.700064z" fill="#ffffff" p-id="2913"></path></svg>