<?xml version="1.0" standalone="no"?><!DOCTYPE svg PUBLIC "-//W3C//DTD SVG 1.1//EN" "http://www.w3.org/Graphics/SVG/1.1/DTD/svg11.dtd"><svg t="1481099569945" class="icon" style="" viewBox="0 0 1024 1024" version="1.1" xmlns="http://www.w3.org/2000/svg" p-id="4405" xmlns:xlink="http://www.w3.org/1999/xlink" width="128" height="128"><defs><style type="text/css"></style></defs><path d="M826.398 770.383l-124.95-124.943c36.182-51.676 55.676-113.072 55.676-177.471 0-82.883-32.276-160.805-90.89-219.413-58.608-58.608-136.535-90.883-219.424-90.883s-160.814 32.275-219.424 90.883c-58.61 58.608-90.89 136.531-90.89 219.413s32.276 160.805 90.89 219.413 136.535 90.883 219.424 90.883c64.402 0 125.803-19.494 177.479-55.674l124.95 124.943c10.653 10.653 24.614 15.979 38.576 15.979s27.924-5.326 38.576-15.979c21.307-21.303 21.307-55.846 0.001-77.153zM245.617 467.968c0-110.937 90.256-201.187 201.196-201.187s201.196 90.253 201.196 201.187c0 110.935-90.256 201.187-201.196 201.187-110.939 0-201.196-90.253-201.196-201.187z" p-id="4406" fill="#ffffff"></path></svg>