<?xml version="1.0" standalone="no"?><!DOCTYPE svg PUBLIC "-//W3C//DTD SVG 1.1//EN" "http://www.w3.org/Graphics/SVG/1.1/DTD/svg11.dtd"><svg t="1481099526470" class="icon" style="" viewBox="0 0 1024 1024" version="1.1" xmlns="http://www.w3.org/2000/svg" p-id="3657" xmlns:xlink="http://www.w3.org/1999/xlink" width="128" height="128"><defs><style type="text/css"></style></defs><path d="M955.593485 449.835515c-3.479165-19.44239-22.205256-39.294094-41.749975-43.591886l-14.530629-3.376836c-34.177676-10.335165-64.466873-32.949735-83.806935-66.206455-19.237734-33.461377-23.84251-71.527531-15.451584-106.319177l0 0 4.604777-13.712002c5.832717-18.930748-1.739582-45.024483-16.986509-58.020186 0 0-13.712002-11.563106-52.187469-33.768362-38.577796-22.102928-55.154992-28.24263-55.154992-28.24263-18.726092-6.856001-45.024483-0.306985-58.736484 14.223643l-10.130509 10.846807c-25.889078 24.558809-60.783052 39.396423-99.360847 39.396423S438.323573 146.022584 412.434496 121.361447l-9.823524-10.539822c-13.507345-14.530629-39.908064-20.977316-58.736484-14.223643 0 0-16.781853 6.139702-55.359648 28.24263C249.937044 147.250525 236.429699 158.81363 236.429699 158.81363c-15.246927 12.791046-22.819227 38.680124-16.986509 57.815529l4.195463 13.81433c8.18627 34.893974 3.888478 72.755471-15.451584 106.216848s-49.936245 56.280604-84.318577 66.411112l-14.018987 3.172179c-19.237734 4.40012-38.168482 24.047167-41.749975 43.591886 0 0-3.172179 17.498151-3.172179 62.010992s3.172179 62.010992 3.172179 62.010992c3.479165 19.647047 22.205256 39.294094 41.749975 43.591886l13.712002 3.172179c34.382332 10.130509 65.183172 32.949735 84.420905 66.615769 19.237734 33.461377 23.84251 71.527531 15.451584 106.319177l0 0-3.990806 13.507345c-5.832717 18.930748 1.739582 45.024483 16.986509 58.020186 0 0 13.712002 11.563106 52.187469 33.768362 38.577796 22.205256 55.154992 28.24263 55.154992 28.24263 18.726092 6.856001 45.024483 0.306985 58.736484-14.223643l9.618867-10.335165c26.093734-24.661137 61.192365-39.805736 99.872489-39.805736s73.983412 15.246927 99.872489 39.908064l0 0 9.618867 10.335165c13.507345 14.530629 39.908064 20.977316 58.736484 14.223643 0 0 16.781853-6.139702 55.359648-28.24263 38.577796-22.205256 52.08514-33.768362 52.08514-33.768362 15.246927-12.791046 22.819227-38.884781 16.986509-58.020186l-4.195463-14.018987c-8.18627-34.689317-3.888478-72.550814 15.451584-105.807535 19.237734-33.461377 50.140901-56.382932 84.420905-66.615769l0 0 13.712002-3.172179c19.237734-4.40012 38.168482-24.047167 41.749975-43.591886 0 0 3.172179-17.498151 3.172179-62.010992C958.765664 467.435995 955.593485 449.835515 955.593485 449.835515L955.593485 449.835515 955.593485 449.835515zM512.102328 690.102528c-98.337564 0-178.256021-79.7138-178.256021-178.256021 0-98.337564 79.7138-178.051364 178.256021-178.051364 98.337564 0 178.256021 79.7138 178.256021 178.256021C690.153692 610.388728 610.439892 690.102528 512.102328 690.102528L512.102328 690.102528 512.102328 690.102528z" p-id="3658" fill="#ffffff"></path></svg>